<svg width="1080" height="1080" viewBox="0 0 1080 1080" fill="none" xmlns="http://www.w3.org/2000/svg">
<rect width="1080" height="1080" rx="256" fill="#181818"/>
<mask id="mask0_200_4" style="mask-type:luminance" maskUnits="userSpaceOnUse" x="88" y="395" width="905" height="289">
<path d="M992.702 395.42H88.5449V683.411H992.702V395.42Z" fill="white"/>
</mask>
<g mask="url(#mask0_200_4)">
<path fill-rule="evenodd" clip-rule="evenodd" d="M232.825 683.411C312.509 683.411 377.106 618.942 377.106 539.416C377.106 459.889 312.509 395.42 232.825 395.42C153.141 395.42 88.5449 459.889 88.5449 539.416C88.5449 618.942 153.141 683.411 232.825 683.411ZM232.825 627.184C281.394 627.184 320.768 587.889 320.768 539.416C320.768 490.943 281.394 451.647 232.825 451.647C184.256 451.647 144.883 490.943 144.883 539.416C144.883 587.889 184.256 627.184 232.825 627.184Z" fill="white"/>
<path fill-rule="evenodd" clip-rule="evenodd" d="M614.519 666.963C594.493 677.467 571.689 683.411 547.494 683.411C467.81 683.411 403.214 618.942 403.214 539.416C403.214 459.889 467.81 395.42 547.494 395.42C627.178 395.42 691.775 459.889 691.775 539.416C691.775 570.443 681.942 599.178 665.217 622.687L625.383 580.204C631.803 568.018 635.437 554.14 635.437 539.416C635.437 490.943 596.063 451.647 547.494 451.647C498.925 451.647 459.552 490.943 459.552 539.416C459.552 587.889 498.925 627.184 547.494 627.184C556.565 627.184 565.316 625.814 573.549 623.268L614.519 666.963Z" fill="white"/>
<path d="M614.905 580.082L577.127 615.365L626.954 668.505L664.733 633.222L614.905 580.082Z" fill="white"/>
<path fill-rule="evenodd" clip-rule="evenodd" d="M775.594 395.42H717.882V546.273C717.882 622.012 779.401 683.411 855.292 683.411C931.184 683.411 992.702 622.012 992.702 546.273V395.42H934.99V542.844C934.99 586.773 899.311 622.384 855.292 622.384C811.273 622.384 775.594 586.773 775.594 542.844V395.42Z" fill="white"/>
</g>
</svg>
